<svg xmlns="http://www.w3.org/2000/svg" width="800" height="800" viewBox="0 0 800 800">
  <defs>
    <linearGradient id="bg" x1="0" y1="0" x2="1" y2="1">
      <stop offset="0" stop-color="#ff3b30" stop-opacity="0.18"/>
      <stop offset="1" stop-color="#000" stop-opacity="0.04"/>
    </linearGradient>
  </defs>
  <rect width="800" height="800" rx="64" fill="url(#bg)"/>
  <path d="M180 470c70 20 140-10 190-70 30-35 65-60 110-70 25 80 80 140 170 160 30 8 50 36 45 66-8 45-58 64-150 64H270c-60 0-105-36-115-92-6-34 6-54 25-58z"
        fill="#ffffff" opacity="0.9" stroke="#131921" stroke-opacity="0.14" stroke-width="10" />
  <path d="M300 415h170" stroke="#131921" stroke-opacity="0.25" stroke-width="10" stroke-linecap="round"/>
  <path d="M280 455h220" stroke="#131921" stroke-opacity="0.20" stroke-width="10" stroke-linecap="round"/>
  <rect x="230" y="560" width="380" height="26" rx="13" fill="#131921" opacity="0.25"/>
  <text x="50%" y="86%" text-anchor="middle" font-family="system-ui,Segoe UI,Arial" font-weight="900" font-size="34" fill="#0f1111" opacity="0.9">Sneakers</text>
</svg>
